<svg width="304" xmlns="http://www.w3.org/2000/svg" height="181" id="screenshot-4076d089-21f9-807a-8007-7cc9466a5341"
     viewBox="1399 3924 304 181" xmlns:xlink="http://www.w3.org/1999/xlink" fill="none" version="1.1">
    <g id="shape-4076d089-21f9-807a-8007-7cc9466a5341">
        <g class="fills" id="fills-4076d089-21f9-807a-8007-7cc9466a5341">
            <path d="M1665.4874267578125,3933.603515625C1665.662353515625,3938.3486328125,1665.7869873046875,3943.0966796875,1666.04150390625,3947.837890625C1666.1217041015625,3949.33154296875,1665.353759765625,3949.89013671875,1664.154541015625,3950.14990234375C1652.4571533203125,3952.68212890625,1641.884765625,3957.83349609375,1631.739501953125,3964.0029296875C1623.166015625,3969.2158203125,1615.04248046875,3975.06787109375,1607.6253662109375,3981.80810546875C1600.342529296875,3988.42626953125,1593.1251220703125,3995.14892578125,1586.3148193359375,4002.244140625C1581.1588134765625,4007.61572265625,1576.689208984375,4013.646484375,1571.9122314453125,4019.38232421875C1569.859130859375,4021.84716796875,1567.8748779296875,4024.37548828125,1565.7177734375,4026.74609375C1564.37255859375,4028.22412109375,1564.656494140625,4029.3408203125,1565.9229736328125,4030.58837890625C1570.127197265625,4034.73046875,1574.2882080078125,4038.91650390625,1578.502197265625,4043.04833984375C1582.260986328125,4046.73388671875,1585.9920654296875,4050.453125,1589.8707275390625,4054.009765625C1596.2752685546875,4059.88232421875,1602.557373046875,4065.9248046875,1609.3311767578125,4071.34521484375C1614.547607421875,4075.52001953125,1620.8095703125,4078.52978515625,1627.482421875,4079.00341796875C1639.4107666015625,4079.85107421875,1650.8536376953125,4077.71142578125,1660.267578125,4069.5576171875C1664.5955810546875,4065.80908203125,1668.7166748046875,4061.70458984375,1671.427978515625,4056.5654296875C1672.8824462890625,4053.80810546875,1673.758056640625,4050.73876953125,1674.8197021484375,4047.783203125C1675.538330078125,4045.78271484375,1676.361328125,4043.77490234375,1676.707275390625,4041.6982421875C1677.06689453125,4039.5400390625,1677.063232421875,4037.28662109375,1676.938720703125,4035.0908203125C1676.7767333984375,4032.234375,1676.669677734375,4029.3046875,1675.936767578125,4026.568359375C1675.0059814453125,4023.0927734375,1673.468505859375,4019.78076171875,1672.19775390625,4016.39599609375C1670.13037109375,4010.89013671875,1666.09228515625,4006.84765625,1661.9085693359375,4003.01318359375C1659.5689697265625,4000.86962890625,1656.789794921875,3999.17919921875,1654.09716796875,3997.458984375C1652.8426513671875,3996.65771484375,1652.651123046875,3995.93994140625,1653.33349609375,3994.7080078125C1655.298828125,3991.1591796875,1657.269775390625,3987.61083984375,1659.12548828125,3984.00390625C1660.5025634765625,3981.32763671875,1661.808837890625,3978.60400390625,1662.9481201171875,3975.81982421875C1663.822265625,3973.68408203125,1665.1627197265625,3973.53173828125,1666.79248046875,3974.63818359375C1670.92529296875,3977.4443359375,1675.0811767578125,3980.23193359375,1679.053955078125,3983.2548828125C1683.671875,3986.76904296875,1687.4029541015625,3991.1767578125,1690.625244140625,3995.98291015625C1693.7142333984375,4000.58935546875,1696.677001953125,4005.2822265625,1698.361083984375,4010.6396484375C1699.4481201171875,4014.09765625,1700.745849609375,4017.50634765625,1701.5572509765625,4021.02783203125C1702.2730712890625,4024.13525390625,1702.78271484375,4027.3671875,1702.7852783203125,4030.54443359375C1702.7900390625,4036.3994140625,1703.62255859375,4042.328125,1701.9766845703125,4048.099609375C1700.634033203125,4052.80712890625,1699.2880859375,4057.521484375,1697.7119140625,4062.15380859375C1695.6673583984375,4068.162109375,1692.253173828125,4073.51416015625,1688.227783203125,4078.29248046875C1684.430419921875,4082.7998046875,1680.099365234375,4086.94921875,1675.5517578125,4090.70947265625C1669.5963134765625,4095.63427734375,1662.7230224609375,4099.138671875,1655.3477783203125,4101.54931640625C1647.7677001953125,4104.0263671875,1640.0142822265625,4105.0791015625,1632.006591796875,4104.9951171875C1626.083251953125,4104.93359375,1620.2271728515625,4104.708984375,1614.6348876953125,4102.7568359375C1610.428466796875,4101.28857421875,1606.244384765625,4099.58251953125,1602.35107421875,4097.4365234375C1597.9417724609375,4095.00634765625,1593.8311767578125,4092.0205078125,1589.666748046875,4089.16552734375C1588.0118408203125,4088.03125,1586.495849609375,4086.66796875,1585.0284423828125,4085.28955078125C1579.4219970703125,4080.02392578125,1573.8370361328125,4074.73486328125,1568.2894287109375,4069.40673828125C1561.6256103515625,4063.0068359375,1555.008056640625,4056.55859375,1548.26220703125,4050.0263671875C1546.4207763671875,4052.38232421875,1544.5960693359375,4054.8095703125,1542.6729736328125,4057.15673828125C1539.0303955078125,4061.6015625,1535.4481201171875,4066.1044921875,1531.6258544921875,4070.3916015625C1526.979736328125,4075.60302734375,1522.3614501953125,4080.8828125,1517.27734375,4085.64892578125C1510.6492919921875,4091.86279296875,1503.27197265625,4097.1806640625,1494.51025390625,4100.0556640625C1489.19287109375,4101.80029296875,1483.7979736328125,4103.66796875,1478.294921875,4104.3896484375C1472.4951171875,4105.14990234375,1466.5220947265625,4104.74462890625,1460.6304931640625,4104.6064453125C1454.2493896484375,4104.4560546875,1448.22216796875,4102.583984375,1442.374755859375,4100.14892578125C1436.2960205078125,4097.6171875,1430.68359375,4094.3203125,1425.3681640625,4090.3798828125C1418.8297119140625,4085.53271484375,1413.73193359375,4079.376953125,1409.3609619140625,4072.7421875C1405.808349609375,4067.35009765625,1402.6318359375,4061.56103515625,1401.5550537109375,4054.927734375C1401.081298828125,4052.009765625,1400.0626220703125,4049.18359375,1399.3773193359375,4046.29541015625C1399.1861572265625,4045.48974609375,1399.3017578125,4044.61083984375,1399.1353759765625,4043.4443359375C1398.996337890625,4037.70849609375,1398.9984130859375,4032.29345703125,1399.00048828125,4026.87841796875C1399.593017578125,4023.5703125,1399.963623046875,4020.203125,1400.820556640625,4016.96484375C1403.2025146484375,4007.96337890625,1407.3607177734375,3999.8544921875,1413.0115966796875,3992.400390625C1419.7943115234375,3983.45263671875,1428.362548828125,3976.8505859375,1438.3922119140625,3972.1181640625C1444.9180908203125,3969.0390625,1451.6478271484375,3966.43359375,1459.0482177734375,3966.19677734375C1464.2861328125,3966.02880859375,1469.5343017578125,3965.259765625,1474.7462158203125,3965.48681640625C1478.7623291015625,3965.66162109375,1482.7689208984375,3966.81103515625,1486.7099609375,3967.80419921875C1495.56982421875,3970.03759765625,1503.73876953125,3973.85595703125,1510.828857421875,3979.6376953125C1516.838623046875,3984.5380859375,1522.6588134765625,3989.68603515625,1528.368408203125,3994.93603515625C1532.883056640625,3999.08740234375,1537.1177978515625,4003.544921875,1541.442138671875,4007.9013671875C1542.4891357421875,4008.9560546875,1543.3992919921875,4010.14697265625,1544.6361083984375,4011.5810546875C1546.4842529296875,4009.162109375,1548.11962890625,4006.849609375,1549.9334716796875,4004.68701171875C1552.781494140625,4001.291015625,1555.7696533203125,3998.013671875,1558.6568603515625,3994.650390625C1559.7220458984375,3993.4091796875,1560.587890625,3991.9931640625,1561.684326171875,3990.78369140625C1566.802001953125,3985.13818359375,1571.689208984375,3979.244140625,1577.1893310546875,3973.99462890625C1583.7818603515625,3967.70263671875,1590.8802490234375,3961.9365234375,1597.827392578125,3956.02294921875C1600.1585693359375,3954.0380859375,1602.6993408203125,3952.2998046875,1605.1356201171875,3950.43798828125C1605.2088623046875,3950.3818359375,1605.244140625,3950.14794921875,1605.191650390625,3950.08544921875C1605.107666015625,3949.9853515625,1604.935302734375,3949.96044921875,1604.54736328125,3949.734375C1602.6324462890625,3949.5185546875,1600.97021484375,3949.4326171875,1599.30810546875,3949.431640625C1570.602294921875,3949.412109375,1541.8966064453125,3949.4033203125,1513.1783447265625,3949.181640625C1513.182861328125,3940.80224609375,1513.1998291015625,3932.6328125,1513.4268798828125,3924.4462890625C1514.7735595703125,3924.42138671875,1515.9102783203125,3924.40625,1517.047119140625,3924.40625C1564.944580078125,3924.40478515625,1612.842041015625,3924.4072265625,1660.739501953125,3924.3876953125C1661.775146484375,3924.3876953125,1662.8106689453125,3924.142578125,1663.8460693359375,3924.01171875C1664.0074462890625,3923.99169921875,1664.1685791015625,3923.9716796875,1664.479248046875,3924.19189453125C1664.6705322265625,3925.4013671875,1664.665283203125,3926.375,1664.7635498046875,3927.33837890625C1664.976806640625,3929.4296875,1665.242919921875,3931.515625,1665.4874267578125,3933.603515625M1448.4683837890625,4074.525390625C1454.7374267578125,4077.55419921875,1461.32861328125,4079.11376953125,1468.3148193359375,4079.10400390625C1477.5286865234375,4079.09130859375,1485.999755859375,4076.6572265625,1493.457275390625,4071.240234375C1496.4012451171875,4069.10205078125,1498.9764404296875,4066.4423828125,1501.6407470703125,4063.93603515625C1504.2615966796875,4061.470703125,1506.9609375,4059.0537109375,1509.3092041015625,4056.3408203125C1513.784912109375,4051.17041015625,1518.0440673828125,4045.81201171875,1522.375244140625,4040.51708984375C1524.1934814453125,4038.2939453125,1526.010498046875,4036.06640625,1527.720947265625,4033.76220703125C1528.05029296875,4033.318359375,1528.1875,4032.2265625,1527.894775390625,4031.90234375C1523.588623046875,4027.1328125,1519.3045654296875,4022.333984375,1514.785888671875,4017.76904296875C1511.3021240234375,4014.24951171875,1507.5740966796875,4010.95849609375,1503.814208984375,4007.72998046875C1499.92333984375,4004.388671875,1496.0196533203125,4001.02294921875,1491.8392333984375,3998.06787109375C1485.8414306640625,3993.828125,1478.820068359375,3992.0439453125,1471.64990234375,3991.36767578125C1464.5313720703125,3990.69677734375,1457.6767578125,3992.0576171875,1451.0047607421875,3994.97314453125C1445.9415283203125,3997.18603515625,1441.594482421875,4000.27587890625,1437.6617431640625,4003.92626953125C1433.110595703125,4008.1513671875,1429.9110107421875,4013.4814453125,1427.7464599609375,4019.27587890625C1426.4271240234375,4022.8076171875,1425.22412109375,4026.5810546875,1425.0504150390625,4030.29638671875C1424.8011474609375,4035.63134765625,1424.54833984375,4040.9990234375,1426.1776123046875,4046.37158203125C1428.0428466796875,4052.52197265625,1430.5860595703125,4058.185546875,1434.6392822265625,4063.1201171875C1438.4154052734375,4067.7177734375,1442.9578857421875,4071.458984375,1448.4683837890625,4074.525390625Z"
                  style="fill: rgb(0, 0, 0); fill-opacity: 1;"/>
        </g>
    </g>
</svg>